<svg xmlns="http://www.w3.org/2000/svg" width="31" height="27" viewBox="0 0 31 27"><defs><linearGradient id="a" x1="-9.385%" x2="130.144%" y1="-38.052%" y2="151.533%"><stop offset="0%" stop-color="#86E8CF"/><stop offset="100%" stop-color="#3BC4A1"/></linearGradient></defs><g fill="url(#a)" fill-rule="evenodd"><path d="M.371 9.094l4.347-7.652A2.848 2.848 0 0 1 7.195 0h8.61c1.025 0 1.971.55 2.477 1.442l4.347 7.652c.495.872.495 1.94 0 2.812l-4.347 7.652A2.848 2.848 0 0 1 15.805 21h-8.61a2.847 2.847 0 0 1-2.477-1.442L.37 11.906a2.847 2.847 0 0 1 0-2.812z" opacity=".6"/><path d="M8.371 15.094l4.347-7.652A2.848 2.848 0 0 1 15.195 6h8.61c1.025 0 1.971.55 2.477 1.442l4.347 7.652c.495.872.495 1.94 0 2.812l-4.347 7.652A2.848 2.848 0 0 1 23.805 27h-8.61a2.847 2.847 0 0 1-2.477-1.442L8.37 17.906a2.847 2.847 0 0 1 0-2.812z" opacity=".7"/></g></svg>